<svg id="svg" xmlns="http://www.w3.org/2000/svg" xmlns:xlink="http://www.w3.org/1999/xlink" width="400" height="153.23383084577114" viewBox="0, 0, 400,153.23383084577114"><g id="svgg"><path id="path0" d="M122.536 1.751 C 119.829 6.131,99.987 8.306,84.354 5.936 C 65.317 3.051,38.718 3.047,28.018 5.928 C 5.864 11.893,-5.028 36.921,8.338 51.148 C 16.919 60.282,33.216 55.653,25.776 46.194 C 13.029 29.989,29.038 11.142,52.282 14.987 C 63.665 16.871,64.138 17.353,60.318 23.185 C 57.917 26.849,56.752 34.211,56.111 49.779 C 55.330 68.735,54.778 71.424,51.493 72.283 C 46.243 73.656,46.591 81.659,51.961 83.063 C 55.938 84.103,56.120 85.176,55.380 103.275 C 53.958 138.099,39.219 154.948,23.728 139.457 C 14.742 130.471,18.933 113.433,30.129 113.433 C 34.812 113.433,33.641 106.208,28.274 101.990 C 16.153 92.461,-0.008 105.599,0.007 124.969 C 0.022 143.833,10.929 153.234,32.801 153.234 C 63.088 153.234,79.602 133.093,79.602 96.156 L 79.602 81.592 91.329 81.592 C 100.324 81.592,103.346 80.838,104.299 78.355 C 106.682 72.145,101.841 69.576,90.312 70.931 L 79.602 72.190 79.602 47.332 L 79.602 22.474 89.986 25.167 C 114.446 31.512,130.627 24.190,128.975 7.524 C 128.356 1.277,124.799 -1.912,122.536 1.751 M345.205 51.570 C 338.706 54.325,337.159 57.459,330.593 81.165 C 315.821 134.506,308.809 136.179,307.947 86.567 L 307.463 58.706 297.724 58.706 L 287.986 58.706 284.484 76.005 C 273.121 132.129,260.553 137.802,263.875 85.308 C 265.394 61.290,264.839 59.792,254.392 59.732 C 243.561 59.670,242.786 60.883,242.786 77.904 C 242.786 113.200,210.640 139.872,202.872 111.022 C 199.909 100.019,202.131 83.448,207.673 75.225 C 215.510 63.595,222.449 69.103,216.070 81.890 C 212.444 89.158,214.607 93.532,221.826 93.532 C 239.202 93.532,236.167 61.826,218.408 57.823 C 197.421 53.092,184.136 65.088,178.119 94.201 C 176.941 99.902,168.982 109.453,165.408 109.453 C 164.263 109.453,163.909 105.185,164.542 99.005 C 168.250 62.810,134.951 43.537,114.680 70.147 C 100.369 88.934,104.126 125.802,121.390 136.000 C 133.865 143.369,154.083 136.383,158.246 123.265 C 158.919 121.146,161.872 118.900,164.809 118.275 C 167.746 117.649,171.991 116.402,174.241 115.504 C 177.763 114.097,178.924 115.157,182.573 123.104 C 192.318 144.330,217.371 145.533,235.345 125.638 L 242.530 117.685 243.756 123.269 C 248.086 142.985,271.415 143.419,281.300 123.968 L 286.016 114.689 288.339 121.728 C 293.864 138.467,310.045 143.579,320.493 131.886 C 324.613 127.275,326.335 126.395,327.139 128.492 C 332.734 143.073,366.773 142.253,375.855 127.319 C 377.947 123.879,382.883 118.874,386.823 116.197 C 394.818 110.764,400.000 102.281,400.000 94.626 C 400.000 86.676,392.906 87.862,390.129 96.277 C 386.324 107.807,380.861 111.149,379.312 102.893 C 378.544 98.799,373.780 91.222,367.192 83.614 L 356.338 71.080 361.253 65.238 C 369.773 55.114,358.829 45.793,345.205 51.570 M141.145 73.910 C 137.253 81.181,139.808 100.047,145.938 109.310 L 151.350 117.488 146.412 122.426 C 131.377 137.460,122.652 95.205,136.444 74.155 C 140.272 68.313,144.251 68.106,141.145 73.910 M153.970 82.090 C 154.630 84.552,155.155 90.597,155.136 95.522 C 155.093 107.225,151.577 101.909,149.879 87.574 C 148.670 77.365,151.637 73.386,153.970 82.090 M358.209 107.456 C 358.209 108.649,336.363 105.885,334.747 104.487 C 334.430 104.213,335.688 98.531,337.543 91.860 L 340.915 79.732 349.562 92.897 C 354.318 100.138,358.209 106.690,358.209 107.456 M355.001 120.398 C 354.494 124.911,345.562 127.341,341.845 123.977 C 336.246 118.910,337.657 117.137,346.766 117.796 C 351.418 118.133,355.123 119.303,355.001 120.398 " stroke="none" fill="#ffffff" fill-rule="evenodd"></path></g></svg>
